<svg width="24" height="24" viewBox="0 0 24 24" fill="none" xmlns="http://www.w3.org/2000/svg">
<path fill-rule="evenodd" clip-rule="evenodd" d="M14 8C14 10.2091 12.2091 12 10 12C7.79086 12 6 10.2091 6 8C6 5.79086 7.79086 4 10 4C12.2091 4 14 5.79086 14 8ZM10 13C6.13401 13 3 15.2386 3 18C3 19.1046 3.89543 20 5 20H15C16.1046 20 17 19.1046 17 18C17 15.2386 13.866 13 10 13ZM18 6C18.5523 6 19 6.44772 19 7V8H20C20.5523 8 21 8.44772 21 9C21 9.55228 20.5523 10 20 10H19V11C19 11.5523 18.5523 12 18 12C17.4477 12 17 11.5523 17 11V10H16C15.4477 10 15 9.55228 15 9C15 8.44771 15.4477 8 16 8H17V7C17 6.44772 17.4477 6 18 6Z" fill="white"/>
</svg>
