<svg width="24" height="24" viewBox="0 0 24 24" fill="none" xmlns="http://www.w3.org/2000/svg">
<path fill-rule="evenodd" clip-rule="evenodd" d="M16.6261 5.26532L13.3263 5.73673C12.8222 5.80875 12.4103 6.04904 12.1162 6.38114L4.41674 14.0806C3.6357 14.8616 3.63566 16.1279 4.41674 16.909L7.24517 19.7374C8.02625 20.5185 9.29255 20.5185 10.0736 19.7374L17.773 12.038C18.1051 11.7439 18.3454 11.332 18.4174 10.8279L18.8888 7.52803C19.0775 6.20815 17.946 5.07671 16.6261 5.26532ZM14.3162 9.83793C14.7067 10.2284 15.3399 10.2285 15.7305 9.83793C16.121 9.4474 16.1209 8.81421 15.7305 8.42371C15.34 8.03322 14.7068 8.03319 14.3162 8.42372C13.9257 8.81424 13.9257 9.44743 14.3162 9.83793Z" fill="white"/>
</svg>
