<svg width="32" height="32" viewBox="0 0 32 32" fill="none" xmlns="http://www.w3.org/2000/svg">
<path d="M4 4H6.66667L7.2 6.66667M9.33333 17.3333H22.6667L28 6.66667H7.2M9.33333 17.3333L7.2 6.66667M9.33333 17.3333L6.27614 20.3905C5.43619 21.2305 6.03108 22.6667 7.21895 22.6667H22.6667M22.6667 22.6667C21.1939 22.6667 20 23.8606 20 25.3333C20 26.8061 21.1939 28 22.6667 28C24.1394 28 25.3333 26.8061 25.3333 25.3333C25.3333 23.8606 24.1394 22.6667 22.6667 22.6667ZM12 25.3333C12 26.8061 10.8061 28 9.33333 28C7.86057 28 6.66667 26.8061 6.66667 25.3333C6.66667 23.8606 7.86057 22.6667 9.33333 22.6667C10.8061 22.6667 12 23.8606 12 25.3333Z" stroke="#737791" stroke-width="2" stroke-linecap="round" stroke-linejoin="round"/>
</svg>
