<svg width="32" height="32" viewBox="0 0 32 32" fill="none" xmlns="http://www.w3.org/2000/svg">
<path d="M16 10.6667C17.4145 10.6667 18.7711 11.2286 19.7713 12.2288C20.7714 13.229 21.3334 14.5855 21.3334 16C21.3334 17.4145 20.7714 18.771 19.7713 19.7712C18.7711 20.7714 17.4145 21.3333 16 21.3333C14.5855 21.3333 13.229 20.7714 12.2288 19.7712C11.2286 18.771 10.6667 17.4145 10.6667 16C10.6667 14.5855 11.2286 13.229 12.2288 12.2288C13.229 11.2286 14.5855 10.6667 16 10.6667ZM16 13.3333C15.2928 13.3333 14.6145 13.6143 14.1144 14.1144C13.6143 14.6145 13.3334 15.2928 13.3334 16C13.3334 16.7072 13.6143 17.3855 14.1144 17.8856C14.6145 18.3857 15.2928 18.6667 16 18.6667C16.7073 18.6667 17.3855 18.3857 17.8856 17.8856C18.3857 17.3855 18.6667 16.7072 18.6667 16C18.6667 15.2928 18.3857 14.6145 17.8856 14.1144C17.3855 13.6143 16.7073 13.3333 16 13.3333ZM13.3334 29.3333C13 29.3333 12.72 29.0933 12.6667 28.7733L12.1734 25.24C11.3334 24.9067 10.6134 24.4533 9.92002 23.92L6.60002 25.2667C6.30669 25.3733 5.94669 25.2667 5.78669 24.9733L3.12002 20.36C3.03841 20.2226 3.00964 20.0602 3.03909 19.9032C3.06854 19.7461 3.15419 19.6052 3.28002 19.5067L6.09335 17.2933L6.00002 16L6.09335 14.6667L3.28002 12.4933C3.15419 12.3948 3.06854 12.2539 3.03909 12.0968C3.00964 11.9398 3.03841 11.7774 3.12002 11.64L5.78669 7.02667C5.94669 6.73333 6.30669 6.61333 6.60002 6.73333L9.92002 8.06667C10.6134 7.54667 11.3334 7.09333 12.1734 6.76L12.6667 3.22667C12.72 2.90667 13 2.66667 13.3334 2.66667H18.6667C19 2.66667 19.28 2.90667 19.3334 3.22667L19.8267 6.76C20.6667 7.09333 21.3867 7.54667 22.08 8.06667L25.4 6.73333C25.6934 6.61333 26.0534 6.73333 26.2134 7.02667L28.88 11.64C29.0534 11.9333 28.9734 12.2933 28.72 12.4933L25.9067 14.6667L26 16L25.9067 17.3333L28.72 19.5067C28.9734 19.7067 29.0534 20.0667 28.88 20.36L26.2134 24.9733C26.0534 25.2667 25.6934 25.3867 25.4 25.2667L22.08 23.9333C21.3867 24.4533 20.6667 24.9067 19.8267 25.24L19.3334 28.7733C19.28 29.0933 19 29.3333 18.6667 29.3333H13.3334ZM15 5.33333L14.5067 8.81333C12.9067 9.14667 11.4934 10 10.4667 11.1867L7.25335 9.8L6.25335 11.5333L9.06669 13.6C8.53335 15.1556 8.53335 16.8444 9.06669 18.4L6.24002 20.48L7.24002 22.2133L10.48 20.8267C11.5067 22 12.9067 22.8533 14.4934 23.1733L14.9867 26.6667H17.0134L17.5067 23.1867C19.0934 22.8533 20.4934 22 21.52 20.8267L24.76 22.2133L25.76 20.48L22.9334 18.4133C23.4667 16.8533 23.4667 15.16 22.9334 13.6L25.7467 11.5333L24.7467 9.8L21.5333 11.1867C20.4856 9.97376 19.0645 9.14357 17.4934 8.82667L17 5.33333H15Z" fill="#737791"/>
</svg>
