<svg width="14" height="14" viewBox="0 0 14 14" fill="none" xmlns="http://www.w3.org/2000/svg">
<path fill-rule="evenodd" clip-rule="evenodd" d="M10.1007 4.11257L7.43899 1.83138C7.31472 1.72244 7.15784 1.66671 7.00013 1.66663C6.89223 1.66657 6.78393 1.69257 6.68544 1.74541C6.64154 1.76889 6.59984 1.79757 6.56128 1.83138L3.89959 4.11257C3.62003 4.35217 3.58763 4.77303 3.82723 5.0526C4.06683 5.33216 4.4877 5.36456 4.76726 5.12496L6.33342 3.78268V8.94578C6.33342 9.31396 6.6319 9.61244 7.00009 9.61244C7.36828 9.61244 7.66676 9.31396 7.66676 8.94578L7.66676 3.78261L9.23301 5.12496C9.51257 5.36456 9.93344 5.33216 10.173 5.0526C10.4126 4.77303 10.3802 4.35217 10.1007 4.11257ZM3.00008 8.33329C3.00008 7.9651 3.29856 7.66663 3.66675 7.66663H4.66675C5.03494 7.66663 5.33341 7.36815 5.33341 6.99996C5.33341 6.63177 5.03494 6.33329 4.66675 6.33329H3.66675C2.56218 6.33329 1.66675 7.22872 1.66675 8.33329V10.3333C1.66675 11.4379 2.56218 12.3333 3.66675 12.3333H10.3334C11.438 12.3333 12.3334 11.4379 12.3334 10.3333V8.33329C12.3334 7.22872 11.438 6.33329 10.3334 6.33329H9.33342C8.96522 6.33329 8.66675 6.63177 8.66675 6.99996C8.66675 7.36815 8.96522 7.66663 9.33342 7.66663H10.3334C10.7016 7.66663 11.0001 7.9651 11.0001 8.33329V10.3333C11.0001 10.7015 10.7016 11 10.3334 11H3.66675C3.29856 11 3.00008 10.7015 3.00008 10.3333V8.33329Z" fill="#0F3659"/>
</svg>
