<svg width="18" height="18" viewBox="0 0 18 18" fill="none" xmlns="http://www.w3.org/2000/svg">
<mask id="mask0_8121_991" style="mask-type:luminance" maskUnits="userSpaceOnUse" x="0" y="0" width="18" height="18">
<rect x="0.360352" y="0.360107" width="17.28" height="17.28" fill="white"/>
</mask>
<g mask="url(#mask0_8121_991)">
<path fill-rule="evenodd" clip-rule="evenodd" d="M1.8015 5.50279C1.80161 3.85536 3.13701 2.52002 4.78446 2.52002H13.2171C14.8647 2.52002 16.1991 3.85546 16.1993 5.50258M16.1993 5.50258L16.2008 7.44874C16.2009 7.59203 16.144 7.72948 16.0428 7.83084C15.9415 7.93219 15.8041 7.98914 15.6608 7.98914C15.0659 7.98914 14.588 8.46697 14.588 9.06123C14.588 9.65492 15.0661 10.1333 15.6608 10.1333C15.959 10.1333 16.2008 10.3751 16.2008 10.6733V12.6173C16.2008 14.2647 14.8662 15.6003 13.2178 15.6003H4.78302C3.1353 15.6003 1.80078 14.2646 1.80078 12.6173V10.6733C1.80078 10.3751 2.04255 10.1333 2.34078 10.1333C2.93463 10.1333 3.41286 9.65507 3.41286 9.06123C3.41286 8.49452 2.96328 8.05178 2.34078 8.05178C2.19753 8.05178 2.06015 7.99486 1.95888 7.89355C1.8576 7.79224 1.80073 7.65484 1.80078 7.51159L1.8015 5.50279C1.8015 5.50272 1.8015 5.50285 1.8015 5.50279M2.8815 5.50298L2.88095 7.03627C3.79355 7.25875 4.49286 8.03701 4.49286 9.06123C4.49286 10.065 3.80894 10.9062 2.88078 11.1453V12.6173C2.88078 13.6686 3.73218 14.5203 4.78302 14.5203H13.2178C14.2695 14.5203 15.1208 13.6685 15.1208 12.6173V11.1453C14.1921 10.9064 13.508 10.0652 13.508 9.06123C13.508 8.05666 14.192 7.21605 15.1204 6.97717L15.1193 5.50338C15.1193 4.45213 14.2679 3.60002 13.2171 3.60002H4.78446C3.73342 3.60002 2.8815 4.45193 2.8815 5.50298ZM1.8015 5.50279L16.1993 5.50258L1.8015 5.50279Z" fill="#FFA800"/>
<path fill-rule="evenodd" clip-rule="evenodd" d="M9.62802 6.45754L10.129 7.47206L11.2508 7.6352C11.8212 7.71982 12.0536 8.42185 11.6375 8.82844L11.6367 8.82926L10.8259 9.61813L11.0176 10.734C11.1162 11.31 10.5117 11.7379 10.0031 11.4727L10.0015 11.4719L9 10.9452L7.99689 11.4727C7.48832 11.7379 6.88375 11.3103 6.9824 10.7343L7.1741 9.61801L6.36393 8.82912L6.36323 8.82844C5.94718 8.42184 6.17957 7.71982 6.74997 7.6352L6.75146 7.63498L7.87104 7.47208L8.37253 6.45643L8.37315 6.45518C8.62942 5.93951 9.37013 5.93357 9.62768 6.45683C9.62779 6.45707 9.62791 6.45731 9.62802 6.45754ZM8.7138 8.20467C8.63514 8.36397 8.48316 8.47439 8.30736 8.49997L7.66933 8.5928L8.13113 9.04247C8.25856 9.16656 8.31672 9.34545 8.28661 9.52075L8.17723 10.1577L8.74867 9.85717C8.90601 9.77443 9.094 9.77443 9.25134 9.85717L9.82278 10.1577L9.71339 9.52076C9.68328 9.34538 9.74149 9.16643 9.86902 9.04233L10.331 8.5928L9.69269 8.49997C9.51687 8.4744 9.36487 8.36398 9.28621 8.20467L9 7.62502L8.7138 8.20467Z" fill="#FFA800"/>
</g>
</svg>
